<svg xmlns="http://www.w3.org/2000/svg" xmlns:xlink="http://www.w3.org/1999/xlink" width="1080" zoomAndPan="magnify" viewBox="0 0 810 809.999993" height="1080" preserveAspectRatio="xMidYMid meet" version="1.0"><defs><clipPath id="2f711b9083"><path d="M 110 195 L 701.503906 195 L 701.503906 760.832031 L 110 760.832031 Z M 110 195 " clip-rule="nonzero"/></clipPath><clipPath id="593fd2ebab"><path d="M 257 49.082031 L 556 49.082031 L 556 315 L 257 315 Z M 257 49.082031 " clip-rule="nonzero"/></clipPath></defs><g clip-path="url(#2f711b9083)"><path fill="#ffffff" d="M 657.949219 760.914062 L 155.019531 760.914062 C 142.808594 760.914062 130.953125 755.820312 122.585938 746.945312 C 114.1875 738.070312 109.75 725.976562 110.433594 713.765625 L 136.910156 237.226562 C 138.222656 213.546875 157.789062 195.023438 181.496094 195.023438 L 631.472656 195.023438 C 655.179688 195.023438 674.746094 213.546875 676.058594 237.226562 L 702.535156 713.765625 C 703.21875 725.976562 698.78125 738.070312 690.382812 746.945312 C 681.984375 755.820312 670.160156 760.914062 657.949219 760.914062 Z M 181.496094 224.804688 C 173.605469 224.804688 167.054688 231 166.636719 238.863281 L 140.15625 715.402344 C 139.949219 719.542969 141.378906 723.476562 144.207031 726.484375 C 147.066406 729.460938 150.878906 731.128906 155.019531 731.128906 L 657.949219 731.128906 C 662.089844 731.128906 665.929688 729.460938 668.761719 726.484375 C 671.589844 723.476562 673.050781 719.542969 672.8125 715.402344 L 646.332031 238.863281 C 645.917969 231 639.363281 224.804688 631.472656 224.804688 Z M 181.496094 224.804688 " fill-opacity="1" fill-rule="nonzero"/></g><g clip-path="url(#593fd2ebab)"><path fill="#ffffff" d="M 540.511719 314.871094 C 532.292969 314.871094 525.621094 308.199219 525.621094 299.980469 L 525.621094 197.761719 C 525.621094 132.058594 472.1875 78.628906 406.484375 78.628906 C 340.78125 78.628906 287.347656 132.058594 287.347656 197.761719 L 287.347656 299.980469 C 287.347656 308.199219 280.679688 314.871094 272.457031 314.871094 C 264.238281 314.871094 257.566406 308.199219 257.566406 299.980469 L 257.566406 197.761719 C 257.566406 115.648438 324.371094 48.84375 406.484375 48.84375 C 488.597656 48.84375 555.402344 115.648438 555.402344 197.761719 L 555.402344 299.980469 C 555.402344 308.199219 548.730469 314.871094 540.511719 314.871094 Z M 540.511719 314.871094 " fill-opacity="1" fill-rule="nonzero"/></g></svg>