<svg xmlns="http://www.w3.org/2000/svg" xmlns:xlink="http://www.w3.org/1999/xlink" width="1080" zoomAndPan="magnify" viewBox="0 0 810 809.999993" height="1080" preserveAspectRatio="xMidYMid meet" version="1.0"><defs><clipPath id="1000b032c6"><path d="M 248.46875 74 L 561.21875 74 L 561.21875 735 L 248.46875 735 Z M 248.46875 74 " clip-rule="nonzero"/></clipPath></defs><g clip-path="url(#1000b032c6)"><path fill="#ffffff" d="M 489.066406 183.554688 L 561.21875 183.554688 L 561.21875 74.71875 L 469.085938 74.71875 L 469.085938 75.136719 C 347.953125 79.578125 322.976562 147.460938 320.894531 219.234375 L 320.617188 219.234375 L 320.617188 294.753906 L 248.46875 294.753906 L 248.46875 403.726562 L 320.617188 403.726562 L 320.617188 734.957031 L 450.074219 734.957031 L 450.074219 403.726562 L 542.902344 403.726562 L 561.21875 294.753906 L 450.074219 294.753906 L 450.074219 227.144531 C 450.074219 203.128906 466.171875 183.554688 489.066406 183.554688 Z M 489.066406 183.554688 " fill-opacity="1" fill-rule="nonzero"/></g></svg>