<svg xmlns="http://www.w3.org/2000/svg" xmlns:xlink="http://www.w3.org/1999/xlink" width="1080" zoomAndPan="magnify" viewBox="0 0 810 809.999993" height="1080" preserveAspectRatio="xMidYMid meet" version="1.0"><defs><clipPath id="f9484ec0f0"><path d="M 141 84 L 669 84 L 669 756.75 L 141 756.75 Z M 141 84 " clip-rule="nonzero"/></clipPath></defs><g clip-path="url(#f9484ec0f0)"><path fill="#ffffff" d="M 470.78125 627.617188 L 514.246094 728.527344 L 562.867188 650.179688 L 653.199219 668.679688 L 596.851562 537.851562 C 561.601562 552.894531 563.992188 559.558594 542.417969 592.546875 C 526.386719 617.058594 498.9375 630.046875 470.78125 627.617188 Z M 404.996094 227.703125 L 503.339844 269.851562 L 503.339844 349.371094 C 503.339844 407.742188 461.546875 452.796875 404.996094 462.65625 C 348.441406 452.796875 306.648438 407.742188 306.648438 349.371094 L 306.648438 269.851562 Z M 391.949219 353.941406 L 369.75 331.746094 C 363.996094 325.992188 354.664062 325.992188 348.910156 331.746094 C 343.15625 337.5 343.15625 346.832031 348.910156 352.585938 L 381.558594 385.234375 C 387.3125 390.988281 396.644531 390.988281 402.398438 385.234375 C 422.078125 365.554688 441.535156 345.652344 461.125 325.882812 C 466.835938 320.117188 466.820312 310.816406 461.0625 305.089844 C 455.300781 299.363281 445.972656 299.378906 440.253906 305.152344 Z M 438.289062 96.085938 C 490.472656 135.144531 478.640625 130.839844 543.722656 134.457031 C 568.71875 135.847656 589.023438 152.882812 594.734375 177.261719 C 609.601562 240.726562 603.304688 229.820312 650.832031 274.429688 C 669.085938 291.5625 673.6875 317.664062 662.394531 340.007812 C 632.988281 398.179688 635.175781 385.777344 642.910156 450.5 C 645.882812 475.359375 632.632812 498.3125 609.617188 508.167969 C 549.699219 533.828125 559.34375 525.734375 523.667969 580.289062 C 509.964844 601.242188 485.058594 610.304688 461.09375 603.0625 C 398.699219 584.207031 411.292969 584.207031 348.898438 603.0625 C 324.929688 610.304688 300.027344 601.242188 286.324219 580.289062 C 250.644531 525.734375 260.292969 533.832031 200.375 508.167969 C 177.359375 498.3125 164.109375 475.359375 167.078125 450.5 C 174.816406 385.777344 177.003906 398.179688 147.597656 340.007812 C 136.300781 317.664062 140.90625 291.5625 159.160156 274.429688 C 206.6875 229.820312 200.390625 240.726562 215.261719 177.261719 C 220.96875 152.882812 241.273438 135.847656 266.273438 134.457031 C 331.351562 130.839844 319.519531 135.144531 371.703125 96.085938 C 391.742188 81.082031 418.246094 81.082031 438.289062 96.085938 Z M 404.996094 175.675781 C 311.378906 175.675781 235.492188 251.5625 235.492188 345.179688 C 235.492188 438.792969 311.378906 514.683594 404.996094 514.683594 C 498.609375 514.683594 574.5 438.792969 574.5 345.179688 C 574.5 251.5625 498.609375 175.675781 404.996094 175.675781 Z M 293.957031 756.886719 L 355.375 624.503906 C 321.976562 634.597656 286.671875 621.75 267.574219 592.546875 C 255.652344 574.316406 246.714844 553.179688 226.324219 543.691406 L 156.792969 693.03125 L 247.628906 677.164062 Z M 293.957031 756.886719 " fill-opacity="1" fill-rule="evenodd"/></g></svg>