<svg xmlns="http://www.w3.org/2000/svg" xmlns:xlink="http://www.w3.org/1999/xlink" width="1080" zoomAndPan="magnify" viewBox="0 0 810 809.999993" height="1080" preserveAspectRatio="xMidYMid meet" version="1.0"><path fill="#ffffff" d="M 402.617188 238.445312 C 310.773438 238.445312 236.066406 313.152344 236.066406 404.996094 C 236.066406 496.835938 310.773438 571.546875 402.617188 571.546875 C 494.457031 571.546875 569.167969 496.835938 569.167969 404.996094 C 569.167969 313.152344 494.457031 238.445312 402.617188 238.445312 Z M 402.617188 547.753906 C 323.898438 547.753906 259.859375 483.714844 259.859375 404.996094 C 259.859375 326.277344 323.898438 262.238281 402.617188 262.238281 C 481.335938 262.238281 545.375 326.277344 545.375 404.996094 C 545.375 483.714844 481.335938 547.753906 402.617188 547.753906 Z M 402.617188 547.753906 " fill-opacity="1" fill-rule="nonzero"/><path fill="#ffffff" d="M 465.582031 349 L 378.824219 435.757812 L 339.636719 396.585938 C 334.984375 391.933594 327.464844 391.933594 322.8125 396.585938 C 318.164062 401.234375 318.164062 408.765625 322.8125 413.40625 L 370.410156 460.992188 C 372.742188 463.3125 375.789062 464.476562 378.824219 464.476562 C 381.855469 464.476562 384.914062 463.3125 387.234375 460.992188 L 482.40625 365.820312 C 487.058594 361.167969 487.058594 353.648438 482.40625 349 C 477.753906 344.347656 470.234375 344.347656 465.582031 349 Z M 465.582031 349 " fill-opacity="1" fill-rule="nonzero"/><path fill="#ffffff" d="M 639 366.296875 C 634.097656 362.667969 632.574219 355.492188 635.824219 350.332031 C 647.445312 331.84375 664.328125 293.011719 606.199219 278.773438 C 600.277344 277.320312 595.886719 271.195312 597.148438 265.246094 C 602.726562 239.144531 594.910156 201.242188 542.375 210.476562 C 536.390625 211.523438 530.027344 207.40625 528.847656 201.421875 C 524.910156 181.414062 507.945312 140.882812 457.304688 171.789062 C 452.09375 174.964844 443.789062 173.238281 441.339844 168.601562 C 433.476562 153.742188 399.035156 119.480469 363.894531 168.601562 C 360.347656 173.5625 352.199219 174.832031 347.925781 171.777344 C 324.871094 155.265625 287.625 151.136719 276.371094 201.398438 C 275.074219 207.167969 268.933594 211.59375 262.832031 210.441406 C 242.679688 206.609375 198.449219 207.871094 208.097656 265.210938 C 209.109375 271.21875 205.074219 277.84375 199.054688 278.75 C 175.582031 282.257812 139.394531 301.113281 169.410156 350.296875 C 172.585938 355.492188 171.667969 363.511719 166.234375 366.261719 C 145.402344 376.789062 121.550781 414.238281 166.234375 443.742188 C 171.3125 447.097656 172.585938 454.316406 169.410156 459.515625 C 139.394531 508.695312 175.582031 527.539062 199.054688 531.0625 C 205.085938 531.964844 209.109375 538.59375 208.097656 544.601562 C 198.449219 601.941406 242.679688 603.203125 262.855469 599.359375 C 268.957031 598.195312 275.097656 602.632812 276.394531 608.402344 C 287.648438 658.675781 324.894531 654.535156 347.953125 638.023438 C 352.222656 634.964844 360.371094 636.238281 363.917969 641.199219 C 399.058594 690.332031 433.5 656.070312 441.363281 641.199219 C 443.8125 636.570312 452.117188 634.835938 457.328125 638.011719 C 507.972656 668.917969 524.933594 628.386719 528.875 608.378906 C 530.050781 602.394531 536.414062 598.277344 542.398438 599.324219 C 594.933594 608.554688 602.738281 570.652344 597.171875 544.550781 C 595.898438 538.605469 600.300781 532.476562 606.222656 531.027344 C 664.363281 516.785156 647.480469 477.957031 635.847656 459.46875 C 632.597656 454.304688 634.003906 446.976562 639 443.527344 C 654.535156 432.785156 688.132812 402.652344 639 366.296875 Z M 622.011719 484.832031 C 626.054688 491.339844 623.558594 500.285156 614.347656 503.320312 C 597.480469 508.886719 566.394531 513.46875 574.6875 562.707031 C 576.269531 572.070312 571.261719 577.671875 560.53125 576.851562 C 544.207031 575.601562 510.601562 569 501.167969 616.527344 C 499.296875 625.914062 490.101562 627.945312 482.679688 624.199219 C 450.652344 608.03125 437.839844 605.960938 412.644531 638.128906 C 407.828125 644.28125 397.785156 644.019531 392.621094 638.128906 C 379.085938 622.699219 363.75 598.980469 322.578125 624.210938 C 315.414062 628.601562 307.253906 625.210938 304.089844 616.550781 C 295.867188 593.996094 293.441406 569.953125 244.714844 576.886719 C 237.195312 577.957031 229.222656 572.867188 230.570312 562.742188 C 233.125 543.375 236.066406 512.277344 190.882812 503.355469 C 183.910156 501.976562 178.460938 492.671875 183.222656 484.867188 C 201.269531 455.351562 198.769531 436.890625 169.027344 414.703125 C 165.671875 412.203125 160.214844 401.460938 169.289062 394.964844 C 198.257812 374.242188 201.269531 354.457031 183.222656 324.933594 C 178.449219 317.128906 183.910156 307.8125 190.882812 306.445312 C 236.066406 297.523438 233.125 266.425781 230.570312 247.058594 C 229.222656 236.933594 237.207031 231.839844 244.714844 232.914062 C 293.441406 239.835938 295.867188 215.804688 304.089844 193.25 C 307.242188 184.578125 315.414062 181.199219 322.578125 185.589844 C 363.761719 210.820312 379.097656 187.097656 392.621094 171.667969 C 397.785156 165.78125 407.816406 165.519531 412.644531 171.667969 C 437.839844 203.835938 450.652344 201.765625 482.679688 185.601562 C 490.101562 181.851562 499.296875 183.886719 501.167969 193.273438 C 510.601562 240.800781 544.207031 234.195312 560.53125 232.949219 C 571.273438 232.128906 576.269531 237.730469 574.6875 247.09375 C 566.394531 296.34375 597.480469 300.914062 614.347656 306.480469 C 623.558594 309.515625 626.054688 318.472656 622.011719 324.96875 C 595.554688 367.460938 623.507812 384.355469 635.941406 395.015625 C 640.796875 399.175781 643.589844 409.015625 637.058594 414.109375 C 622.199219 424.386719 595.554688 442.339844 622.011719 484.832031 Z M 622.011719 484.832031 " fill-opacity="1" fill-rule="nonzero"/></svg>