<svg xmlns="http://www.w3.org/2000/svg" xmlns:xlink="http://www.w3.org/1999/xlink" width="1080" zoomAndPan="magnify" viewBox="0 0 810 809.999993" height="1080" preserveAspectRatio="xMidYMid meet" version="1.0"><defs><clipPath id="7cf3b1de7f"><path d="M 0 808.125 L 1.875 808.125 L 1.875 810 L 0 810 Z M 0 808.125 " clip-rule="nonzero"/></clipPath><clipPath id="a23d2a73b4"><path d="M 198 213.027344 L 748 213.027344 L 748 568 L 198 568 Z M 198 213.027344 " clip-rule="nonzero"/></clipPath><clipPath id="aaed730766"><path d="M 226 476 L 390 476 L 390 639.027344 L 226 639.027344 Z M 226 476 " clip-rule="nonzero"/></clipPath><clipPath id="640a3cfe38"><path d="M 526 476 L 690 476 L 690 639.027344 L 526 639.027344 Z M 526 476 " clip-rule="nonzero"/></clipPath><clipPath id="f41064e411"><path d="M 470 213.027344 L 690 213.027344 L 690 397 L 470 397 Z M 470 213.027344 " clip-rule="nonzero"/></clipPath></defs><g clip-path="url(#7cf3b1de7f)"><path fill="#ad7f64" d="M -1.875 808.125 L 1.875 808.125 L 1.875 811.875 L -1.875 811.875 Z M -1.875 808.125 " fill-opacity="1" fill-rule="nonzero"/></g><path fill="#ffffff" d="M 238.953125 567.761719 L 164.9375 567.761719 C 164.148438 567.761719 163.367188 567.683594 162.589844 567.53125 C 161.816406 567.375 161.0625 567.148438 160.332031 566.84375 C 159.601562 566.542969 158.90625 566.171875 158.25 565.730469 C 157.59375 565.292969 156.984375 564.792969 156.425781 564.234375 C 155.867188 563.675781 155.367188 563.066406 154.925781 562.410156 C 154.488281 561.753906 154.117188 561.058594 153.816406 560.328125 C 153.511719 559.597656 153.285156 558.84375 153.128906 558.070312 C 152.976562 557.292969 152.898438 556.511719 152.898438 555.71875 C 152.898438 554.929688 152.976562 554.144531 153.128906 553.371094 C 153.285156 552.59375 153.511719 551.84375 153.816406 551.113281 C 154.117188 550.382812 154.488281 549.6875 154.925781 549.03125 C 155.367188 548.371094 155.867188 547.765625 156.425781 547.207031 C 156.984375 546.644531 157.59375 546.148438 158.25 545.707031 C 158.90625 545.269531 159.601562 544.898438 160.332031 544.59375 C 161.0625 544.292969 161.816406 544.0625 162.589844 543.910156 C 163.367188 543.757812 164.148438 543.679688 164.9375 543.679688 L 238.953125 543.679688 C 239.742188 543.679688 240.527344 543.757812 241.300781 543.910156 C 242.078125 544.0625 242.828125 544.292969 243.558594 544.59375 C 244.289062 544.898438 244.984375 545.269531 245.640625 545.707031 C 246.300781 546.148438 246.90625 546.644531 247.464844 547.207031 C 248.027344 547.765625 248.523438 548.371094 248.964844 549.03125 C 249.402344 549.6875 249.773438 550.382812 250.078125 551.113281 C 250.378906 551.84375 250.609375 552.59375 250.761719 553.371094 C 250.917969 554.144531 250.992188 554.929688 250.992188 555.71875 C 250.992188 556.511719 250.917969 557.292969 250.761719 558.070312 C 250.609375 558.84375 250.378906 559.597656 250.078125 560.328125 C 249.773438 561.058594 249.402344 561.753906 248.964844 562.410156 C 248.523438 563.066406 248.027344 563.675781 247.464844 564.234375 C 246.90625 564.792969 246.300781 565.292969 245.640625 565.730469 C 244.984375 566.171875 244.289062 566.542969 243.558594 566.84375 C 242.828125 567.148438 242.078125 567.375 241.300781 567.53125 C 240.527344 567.683594 239.742188 567.761719 238.953125 567.761719 Z M 238.953125 567.761719 " fill-opacity="1" fill-rule="nonzero"/><path fill="#ffffff" d="M 539.257812 567.761719 L 377.585938 567.761719 C 376.796875 567.761719 376.011719 567.683594 375.238281 567.53125 C 374.460938 567.375 373.707031 567.148438 372.976562 566.84375 C 372.246094 566.542969 371.554688 566.171875 370.898438 565.730469 C 370.238281 565.292969 369.632812 564.792969 369.070312 564.234375 C 368.511719 563.675781 368.011719 563.066406 367.574219 562.410156 C 367.136719 561.753906 366.765625 561.058594 366.460938 560.328125 C 366.160156 559.597656 365.929688 558.84375 365.777344 558.070312 C 365.621094 557.292969 365.546875 556.511719 365.546875 555.71875 C 365.546875 554.929688 365.621094 554.144531 365.777344 553.371094 C 365.929688 552.59375 366.160156 551.84375 366.460938 551.113281 C 366.765625 550.382812 367.136719 549.6875 367.574219 549.03125 C 368.011719 548.371094 368.511719 547.765625 369.070312 547.207031 C 369.632812 546.644531 370.238281 546.148438 370.898438 545.707031 C 371.554688 545.269531 372.246094 544.898438 372.976562 544.59375 C 373.707031 544.292969 374.460938 544.0625 375.238281 543.910156 C 376.011719 543.757812 376.796875 543.679688 377.585938 543.679688 L 539.257812 543.679688 C 540.050781 543.679688 540.832031 543.757812 541.609375 543.910156 C 542.382812 544.0625 543.136719 544.292969 543.867188 544.59375 C 544.597656 544.898438 545.292969 545.269531 545.949219 545.707031 C 546.605469 546.148438 547.214844 546.644531 547.773438 547.207031 C 548.332031 547.765625 548.832031 548.371094 549.269531 549.03125 C 549.710938 549.6875 550.082031 550.382812 550.382812 551.113281 C 550.6875 551.84375 550.914062 552.59375 551.070312 553.371094 C 551.222656 554.144531 551.300781 554.929688 551.300781 555.71875 C 551.300781 556.511719 551.222656 557.292969 551.070312 558.070312 C 550.914062 558.84375 550.6875 559.597656 550.382812 560.328125 C 550.082031 561.058594 549.710938 561.753906 549.269531 562.410156 C 548.832031 563.066406 548.332031 563.675781 547.773438 564.234375 C 547.214844 564.792969 546.605469 565.292969 545.949219 565.730469 C 545.292969 566.171875 544.597656 566.542969 543.867188 566.84375 C 543.136719 567.148438 542.382812 567.375 541.609375 567.53125 C 540.832031 567.683594 540.050781 567.761719 539.257812 567.761719 Z M 539.257812 567.761719 " fill-opacity="1" fill-rule="nonzero"/><g clip-path="url(#a23d2a73b4)"><path fill="#ffffff" d="M 735.691406 567.761719 L 677.734375 567.761719 C 676.941406 567.761719 676.160156 567.683594 675.382812 567.53125 C 674.609375 567.375 673.855469 567.148438 673.125 566.84375 C 672.394531 566.542969 671.699219 566.171875 671.042969 565.730469 C 670.386719 565.292969 669.777344 564.792969 669.21875 564.234375 C 668.660156 563.675781 668.160156 563.066406 667.722656 562.410156 C 667.28125 561.753906 666.910156 561.058594 666.609375 560.328125 C 666.304688 559.597656 666.078125 558.84375 665.921875 558.070312 C 665.769531 557.292969 665.691406 556.511719 665.691406 555.71875 C 665.691406 554.929688 665.769531 554.144531 665.921875 553.371094 C 666.078125 552.59375 666.304688 551.84375 666.609375 551.113281 C 666.910156 550.382812 667.28125 549.6875 667.722656 549.03125 C 668.160156 548.371094 668.660156 547.765625 669.21875 547.207031 C 669.777344 546.644531 670.386719 546.148438 671.042969 545.707031 C 671.699219 545.269531 672.394531 544.898438 673.125 544.59375 C 673.855469 544.292969 674.609375 544.0625 675.382812 543.910156 C 676.160156 543.757812 676.941406 543.679688 677.734375 543.679688 L 723.890625 543.679688 L 723.890625 450.398438 C 723.894531 448.898438 723.804688 447.402344 723.628906 445.910156 C 723.449219 444.417969 723.179688 442.941406 722.824219 441.484375 C 722.46875 440.023438 722.023438 438.59375 721.492188 437.1875 C 720.960938 435.78125 720.347656 434.414062 719.652344 433.085938 C 718.953125 431.753906 718.179688 430.46875 717.328125 429.234375 C 716.476562 427.996094 715.550781 426.816406 714.554688 425.691406 C 713.558594 424.566406 712.5 423.503906 711.375 422.507812 C 710.253906 421.511719 709.070312 420.589844 707.835938 419.734375 L 670.910156 394.769531 C 669.609375 393.84375 668.511719 392.722656 667.617188 391.398438 L 579.957031 255.976562 C 579.050781 254.550781 578.058594 253.191406 576.976562 251.894531 C 575.898438 250.597656 574.742188 249.375 573.507812 248.222656 C 572.273438 247.070312 570.972656 246 569.601562 245.015625 C 568.234375 244.027344 566.808594 243.128906 565.328125 242.324219 C 563.84375 241.515625 562.316406 240.804688 560.746094 240.1875 C 559.175781 239.574219 557.570312 239.0625 555.933594 238.648438 C 554.296875 238.234375 552.640625 237.925781 550.964844 237.722656 C 549.292969 237.519531 547.609375 237.421875 545.921875 237.429688 L 210.132812 237.429688 C 209.34375 237.429688 208.558594 237.355469 207.785156 237.199219 C 207.007812 237.046875 206.257812 236.816406 205.527344 236.515625 C 204.796875 236.210938 204.101562 235.839844 203.445312 235.402344 C 202.785156 234.960938 202.179688 234.464844 201.621094 233.90625 C 201.058594 233.34375 200.5625 232.738281 200.121094 232.078125 C 199.683594 231.421875 199.3125 230.730469 199.007812 230 C 198.707031 229.269531 198.476562 228.515625 198.324219 227.738281 C 198.167969 226.964844 198.09375 226.179688 198.09375 225.390625 C 198.09375 224.597656 198.167969 223.816406 198.324219 223.042969 C 198.476562 222.265625 198.707031 221.511719 199.007812 220.78125 C 199.3125 220.050781 199.683594 219.359375 200.121094 218.699219 C 200.5625 218.042969 201.058594 217.433594 201.621094 216.875 C 202.179688 216.316406 202.785156 215.816406 203.445312 215.378906 C 204.101562 214.9375 204.796875 214.566406 205.527344 214.265625 C 206.257812 213.964844 207.007812 213.734375 207.785156 213.582031 C 208.558594 213.425781 209.34375 213.347656 210.132812 213.347656 L 545.921875 213.347656 C 548.609375 213.339844 551.289062 213.5 553.960938 213.828125 C 556.628906 214.15625 559.265625 214.648438 561.875 215.308594 C 564.480469 215.964844 567.039062 216.785156 569.542969 217.765625 C 572.046875 218.746094 574.480469 219.878906 576.839844 221.164062 C 579.203125 222.449219 581.476562 223.878906 583.65625 225.449219 C 585.839844 227.023438 587.914062 228.722656 589.882812 230.554688 C 591.851562 232.386719 593.699219 234.335938 595.421875 236.398438 C 597.148438 238.464844 598.734375 240.625 600.1875 242.890625 L 686.484375 376.226562 L 721 399.828125 C 723.0625 401.21875 725.03125 402.730469 726.910156 404.363281 C 728.789062 405.996094 730.558594 407.738281 732.226562 409.585938 C 733.890625 411.433594 735.4375 413.378906 736.867188 415.414062 C 738.296875 417.453125 739.597656 419.566406 740.765625 421.761719 C 741.9375 423.960938 742.972656 426.21875 743.867188 428.539062 C 744.761719 430.859375 745.515625 433.226562 746.121094 435.640625 C 746.730469 438.054688 747.1875 440.496094 747.496094 442.964844 C 747.808594 445.433594 747.964844 447.910156 747.972656 450.398438 L 747.972656 555.71875 C 747.972656 556.519531 747.894531 557.3125 747.734375 558.097656 C 747.578125 558.882812 747.34375 559.644531 747.035156 560.382812 C 746.722656 561.121094 746.34375 561.824219 745.894531 562.484375 C 745.445312 563.148438 744.933594 563.761719 744.363281 564.320312 C 743.789062 564.882812 743.167969 565.378906 742.496094 565.816406 C 741.824219 566.253906 741.117188 566.621094 740.371094 566.914062 C 739.628906 567.210938 738.863281 567.429688 738.074219 567.570312 C 737.285156 567.714844 736.492188 567.777344 735.691406 567.761719 Z M 735.691406 567.761719 " fill-opacity="1" fill-rule="nonzero"/></g><g clip-path="url(#aaed730766)"><path fill="#ffffff" d="M 308.230469 639.765625 C 306.898438 639.765625 305.566406 639.734375 304.234375 639.667969 C 302.90625 639.605469 301.578125 639.507812 300.25 639.375 C 298.925781 639.246094 297.601562 639.082031 296.285156 638.886719 C 294.96875 638.691406 293.65625 638.464844 292.347656 638.203125 C 291.042969 637.945312 289.742188 637.652344 288.449219 637.328125 C 287.160156 637.003906 285.875 636.648438 284.601562 636.261719 C 283.324219 635.875 282.0625 635.457031 280.808594 635.007812 C 279.550781 634.558594 278.308594 634.082031 277.078125 633.570312 C 275.847656 633.0625 274.632812 632.523438 273.425781 631.953125 C 272.222656 631.382812 271.03125 630.785156 269.859375 630.15625 C 268.683594 629.527344 267.523438 628.871094 266.382812 628.1875 C 265.238281 627.5 264.113281 626.789062 263.007812 626.050781 C 261.898438 625.308594 260.808594 624.542969 259.738281 623.75 C 258.671875 622.957031 257.621094 622.136719 256.589844 621.289062 C 255.5625 620.445312 254.550781 619.574219 253.566406 618.679688 C 252.578125 617.785156 251.613281 616.867188 250.671875 615.925781 C 249.730469 614.984375 248.8125 614.019531 247.917969 613.03125 C 247.023438 612.046875 246.152344 611.039062 245.308594 610.007812 C 244.460938 608.976562 243.644531 607.929688 242.847656 606.859375 C 242.054688 605.789062 241.289062 604.699219 240.550781 603.589844 C 239.808594 602.484375 239.097656 601.359375 238.410156 600.214844 C 237.726562 599.074219 237.070312 597.914062 236.441406 596.738281 C 235.8125 595.566406 235.214844 594.375 234.644531 593.171875 C 234.078125 591.96875 233.535156 590.75 233.027344 589.519531 C 232.515625 588.289062 232.039062 587.046875 231.589844 585.792969 C 231.140625 584.535156 230.722656 583.273438 230.335938 581.996094 C 229.949219 580.722656 229.59375 579.4375 229.269531 578.148438 C 228.945312 576.855469 228.65625 575.554688 228.394531 574.25 C 228.136719 572.941406 227.90625 571.628906 227.710938 570.3125 C 227.515625 568.996094 227.351562 567.671875 227.222656 566.347656 C 227.09375 565.023438 226.996094 563.695312 226.929688 562.363281 C 226.863281 561.03125 226.832031 559.699219 226.832031 558.367188 C 226.832031 557.035156 226.863281 555.707031 226.929688 554.375 C 226.996094 553.042969 227.09375 551.714844 227.222656 550.390625 C 227.351562 549.066406 227.515625 547.742188 227.710938 546.425781 C 227.90625 545.109375 228.136719 543.796875 228.394531 542.488281 C 228.65625 541.183594 228.945312 539.882812 229.269531 538.589844 C 229.59375 537.296875 229.949219 536.015625 230.335938 534.742188 C 230.722656 533.464844 231.140625 532.199219 231.589844 530.945312 C 232.039062 529.691406 232.515625 528.449219 233.027344 527.21875 C 233.535156 525.988281 234.078125 524.769531 234.644531 523.566406 C 235.214844 522.363281 235.8125 521.171875 236.441406 520 C 237.070312 518.824219 237.726562 517.664062 238.410156 516.523438 C 239.097656 515.378906 239.808594 514.253906 240.550781 513.144531 C 241.289062 512.039062 242.054688 510.949219 242.847656 509.878906 C 243.644531 508.808594 244.460938 507.761719 245.308594 506.730469 C 246.152344 505.699219 247.023438 504.691406 247.917969 503.707031 C 248.8125 502.71875 249.730469 501.753906 250.671875 500.8125 C 251.613281 499.871094 252.578125 498.953125 253.566406 498.058594 C 254.550781 497.164062 255.5625 496.292969 256.589844 495.445312 C 257.621094 494.601562 258.671875 493.78125 259.738281 492.988281 C 260.808594 492.195312 261.898438 491.429688 263.007812 490.6875 C 264.113281 489.949219 265.238281 489.234375 266.382812 488.550781 C 267.523438 487.867188 268.683594 487.210938 269.859375 486.582031 C 271.03125 485.953125 272.222656 485.355469 273.425781 484.785156 C 274.632812 484.214844 275.847656 483.675781 277.078125 483.167969 C 278.308594 482.65625 279.550781 482.175781 280.808594 481.730469 C 282.0625 481.28125 283.324219 480.863281 284.601562 480.476562 C 285.875 480.089844 287.160156 479.734375 288.449219 479.410156 C 289.742188 479.085938 291.042969 478.792969 292.347656 478.535156 C 293.65625 478.273438 294.96875 478.046875 296.285156 477.851562 C 297.601562 477.65625 298.925781 477.492188 300.25 477.363281 C 301.578125 477.230469 302.90625 477.132812 304.234375 477.070312 C 305.566406 477.003906 306.898438 476.96875 308.230469 476.96875 C 309.5625 476.96875 310.894531 477.003906 312.222656 477.070312 C 313.554688 477.132812 314.882812 477.230469 316.207031 477.363281 C 317.535156 477.492188 318.855469 477.65625 320.171875 477.851562 C 321.492188 478.046875 322.800781 478.273438 324.109375 478.535156 C 325.414062 478.792969 326.714844 479.085938 328.007812 479.410156 C 329.300781 479.734375 330.582031 480.089844 331.859375 480.476562 C 333.132812 480.863281 334.398438 481.28125 335.652344 481.730469 C 336.90625 482.175781 338.148438 482.65625 339.378906 483.167969 C 340.609375 483.675781 341.828125 484.214844 343.03125 484.785156 C 344.234375 485.355469 345.425781 485.953125 346.601562 486.582031 C 347.773438 487.210938 348.933594 487.867188 350.078125 488.550781 C 351.21875 489.234375 352.34375 489.949219 353.453125 490.6875 C 354.558594 491.429688 355.648438 492.195312 356.71875 492.988281 C 357.789062 493.78125 358.839844 494.601562 359.867188 495.445312 C 360.898438 496.292969 361.90625 497.164062 362.894531 498.058594 C 363.878906 498.953125 364.84375 499.871094 365.785156 500.8125 C 366.726562 501.753906 367.648438 502.71875 368.542969 503.707031 C 369.4375 504.691406 370.304688 505.699219 371.152344 506.730469 C 371.996094 507.761719 372.816406 508.808594 373.609375 509.878906 C 374.402344 510.949219 375.167969 512.039062 375.910156 513.144531 C 376.648438 514.253906 377.363281 515.378906 378.046875 516.523438 C 378.730469 517.664062 379.386719 518.824219 380.015625 520 C 380.644531 521.171875 381.242188 522.363281 381.8125 523.566406 C 382.382812 524.769531 382.921875 525.988281 383.429688 527.21875 C 383.941406 528.449219 384.421875 529.691406 384.871094 530.945312 C 385.316406 532.199219 385.734375 533.464844 386.121094 534.742188 C 386.507812 536.015625 386.863281 537.296875 387.1875 538.589844 C 387.511719 539.882812 387.804688 541.183594 388.0625 542.488281 C 388.324219 543.796875 388.550781 545.109375 388.746094 546.425781 C 388.941406 547.742188 389.105469 549.066406 389.234375 550.390625 C 389.367188 551.714844 389.464844 553.042969 389.53125 554.375 C 389.59375 555.707031 389.628906 557.035156 389.628906 558.367188 C 389.628906 559.699219 389.59375 561.03125 389.53125 562.363281 C 389.464844 563.695312 389.367188 565.023438 389.234375 566.347656 C 389.105469 567.671875 388.941406 568.996094 388.746094 570.3125 C 388.550781 571.628906 388.324219 572.941406 388.0625 574.25 C 387.804688 575.554688 387.511719 576.855469 387.1875 578.148438 C 386.863281 579.4375 386.507812 580.722656 386.121094 581.996094 C 385.734375 583.273438 385.316406 584.535156 384.871094 585.792969 C 384.421875 587.046875 383.941406 588.289062 383.429688 589.519531 C 382.921875 590.75 382.382812 591.96875 381.8125 593.171875 C 381.242188 594.375 380.644531 595.566406 380.015625 596.738281 C 379.386719 597.914062 378.730469 599.074219 378.046875 600.214844 C 377.363281 601.359375 376.648438 602.484375 375.910156 603.589844 C 375.167969 604.699219 374.402344 605.789062 373.609375 606.859375 C 372.816406 607.929688 371.996094 608.976562 371.152344 610.007812 C 370.304688 611.039062 369.4375 612.046875 368.542969 613.03125 C 367.648438 614.019531 366.726562 614.984375 365.785156 615.925781 C 364.84375 616.867188 363.878906 617.785156 362.894531 618.679688 C 361.90625 619.574219 360.898438 620.445312 359.867188 621.289062 C 358.839844 622.136719 357.789062 622.957031 356.71875 623.75 C 355.648438 624.542969 354.558594 625.308594 353.453125 626.050781 C 352.34375 626.789062 351.21875 627.5 350.078125 628.1875 C 348.933594 628.871094 347.773438 629.527344 346.601562 630.15625 C 345.425781 630.785156 344.234375 631.382812 343.03125 631.953125 C 341.828125 632.523438 340.609375 633.0625 339.378906 633.570312 C 338.148438 634.082031 336.90625 634.558594 335.652344 635.007812 C 334.398438 635.457031 333.132812 635.875 331.859375 636.261719 C 330.582031 636.648438 329.300781 637.003906 328.007812 637.328125 C 326.714844 637.652344 325.414062 637.945312 324.109375 638.203125 C 322.800781 638.464844 321.492188 638.691406 320.171875 638.886719 C 318.855469 639.082031 317.535156 639.246094 316.207031 639.375 C 314.882812 639.507812 313.554688 639.605469 312.222656 639.667969 C 310.894531 639.734375 309.5625 639.765625 308.230469 639.765625 Z M 308.230469 501.054688 C 306.351562 501.054688 304.480469 501.144531 302.609375 501.328125 C 300.742188 501.511719 298.886719 501.789062 297.046875 502.152344 C 295.207031 502.519531 293.386719 502.976562 291.589844 503.519531 C 289.792969 504.066406 288.03125 504.699219 286.296875 505.414062 C 284.5625 506.132812 282.867188 506.9375 281.210938 507.820312 C 279.554688 508.707031 277.945312 509.667969 276.386719 510.710938 C 274.824219 511.753906 273.320312 512.871094 271.867188 514.0625 C 270.417969 515.253906 269.027344 516.511719 267.699219 517.839844 C 266.375 519.167969 265.113281 520.558594 263.921875 522.007812 C 262.730469 523.460938 261.617188 524.964844 260.574219 526.527344 C 259.53125 528.085938 258.566406 529.695312 257.679688 531.351562 C 256.796875 533.007812 255.996094 534.699219 255.277344 536.433594 C 254.558594 538.167969 253.925781 539.933594 253.382812 541.730469 C 252.835938 543.527344 252.378906 545.347656 252.015625 547.1875 C 251.648438 549.027344 251.375 550.882812 251.1875 552.75 C 251.003906 554.621094 250.914062 556.492188 250.914062 558.367188 C 250.914062 560.246094 251.003906 562.117188 251.1875 563.988281 C 251.375 565.855469 251.648438 567.710938 252.015625 569.550781 C 252.378906 571.390625 252.835938 573.210938 253.382812 575.007812 C 253.925781 576.804688 254.558594 578.570312 255.277344 580.304688 C 255.996094 582.035156 256.796875 583.730469 257.679688 585.386719 C 258.566406 587.042969 259.53125 588.652344 260.574219 590.210938 C 261.617188 591.773438 262.730469 593.277344 263.921875 594.730469 C 265.113281 596.179688 266.375 597.570312 267.699219 598.898438 C 269.027344 600.226562 270.417969 601.484375 271.867188 602.675781 C 273.320312 603.867188 274.824219 604.984375 276.386719 606.027344 C 277.945312 607.070312 279.554688 608.03125 281.210938 608.917969 C 282.867188 609.800781 284.5625 610.605469 286.296875 611.320312 C 288.03125 612.039062 289.792969 612.671875 291.589844 613.21875 C 293.386719 613.761719 295.207031 614.21875 297.046875 614.582031 C 298.886719 614.949219 300.742188 615.226562 302.609375 615.410156 C 304.480469 615.59375 306.351562 615.683594 308.230469 615.683594 C 310.105469 615.683594 311.980469 615.59375 313.847656 615.410156 C 315.714844 615.226562 317.570312 614.949219 319.410156 614.582031 C 321.253906 614.21875 323.070312 613.761719 324.867188 613.21875 C 326.664062 612.671875 328.429688 612.039062 330.164062 611.320312 C 331.898438 610.605469 333.59375 609.800781 335.246094 608.917969 C 336.902344 608.03125 338.511719 607.070312 340.070312 606.027344 C 341.632812 604.984375 343.140625 603.867188 344.589844 602.675781 C 346.042969 601.484375 347.429688 600.226562 348.757812 598.898438 C 350.085938 597.570312 351.34375 596.179688 352.535156 594.730469 C 353.726562 593.277344 354.84375 591.773438 355.886719 590.210938 C 356.929688 588.652344 357.890625 587.042969 358.777344 585.386719 C 359.664062 583.730469 360.464844 582.035156 361.183594 580.304688 C 361.902344 578.570312 362.53125 576.804688 363.078125 575.007812 C 363.621094 573.210938 364.078125 571.390625 364.445312 569.550781 C 364.808594 567.710938 365.085938 565.855469 365.269531 563.988281 C 365.453125 562.117188 365.546875 560.246094 365.546875 558.367188 C 365.542969 556.492188 365.449219 554.621094 365.261719 552.753906 C 365.074219 550.886719 364.796875 549.03125 364.429688 547.191406 C 364.0625 545.351562 363.605469 543.535156 363.058594 541.738281 C 362.511719 539.945312 361.878906 538.179688 361.160156 536.449219 C 360.441406 534.714844 359.640625 533.019531 358.753906 531.367188 C 357.867188 529.710938 356.902344 528.105469 355.859375 526.542969 C 354.816406 524.984375 353.703125 523.480469 352.511719 522.03125 C 351.320312 520.578125 350.0625 519.191406 348.734375 517.863281 C 347.40625 516.535156 346.019531 515.277344 344.570312 514.085938 C 343.117188 512.898438 341.613281 511.78125 340.054688 510.738281 C 338.492188 509.695312 336.886719 508.730469 335.230469 507.84375 C 333.578125 506.957031 331.882812 506.15625 330.152344 505.4375 C 328.417969 504.71875 326.652344 504.085938 324.859375 503.539062 C 323.0625 502.992188 321.246094 502.535156 319.40625 502.167969 C 317.566406 501.800781 315.710938 501.523438 313.84375 501.335938 C 311.976562 501.148438 310.105469 501.054688 308.230469 501.054688 Z M 308.230469 501.054688 " fill-opacity="1" fill-rule="nonzero"/></g><g clip-path="url(#640a3cfe38)"><path fill="#ffffff" d="M 608.375 639.765625 C 607.042969 639.765625 605.710938 639.734375 604.382812 639.667969 C 603.050781 639.605469 601.722656 639.507812 600.398438 639.375 C 599.070312 639.246094 597.75 639.082031 596.433594 638.886719 C 595.113281 638.691406 593.800781 638.464844 592.496094 638.203125 C 591.1875 637.945312 589.890625 637.652344 588.597656 637.328125 C 587.304688 637.003906 586.023438 636.648438 584.746094 636.261719 C 583.472656 635.875 582.207031 635.457031 580.953125 635.007812 C 579.699219 634.558594 578.457031 634.082031 577.226562 633.570312 C 575.996094 633.0625 574.777344 632.523438 573.574219 631.953125 C 572.367188 631.382812 571.179688 630.785156 570.003906 630.15625 C 568.828125 629.527344 567.671875 628.871094 566.527344 628.1875 C 565.386719 627.5 564.261719 626.789062 563.152344 626.050781 C 562.046875 625.308594 560.957031 624.542969 559.886719 623.75 C 558.816406 622.957031 557.765625 622.136719 556.738281 621.289062 C 555.707031 620.445312 554.699219 619.574219 553.710938 618.679688 C 552.726562 617.785156 551.761719 616.867188 550.816406 615.925781 C 549.875 614.984375 548.957031 614.019531 548.0625 613.03125 C 547.167969 612.046875 546.300781 611.039062 545.453125 610.007812 C 544.609375 608.976562 543.789062 607.929688 542.996094 606.859375 C 542.203125 605.789062 541.433594 604.699219 540.695312 603.589844 C 539.957031 602.484375 539.242188 601.359375 538.558594 600.214844 C 537.875 599.074219 537.214844 597.914062 536.589844 596.738281 C 535.960938 595.566406 535.363281 594.375 534.792969 593.171875 C 534.222656 591.96875 533.683594 590.75 533.171875 589.519531 C 532.664062 588.289062 532.183594 587.046875 531.734375 585.792969 C 531.285156 584.535156 530.867188 583.273438 530.480469 581.996094 C 530.09375 580.722656 529.742188 579.4375 529.417969 578.148438 C 529.09375 576.855469 528.800781 575.554688 528.542969 574.25 C 528.28125 572.941406 528.054688 571.628906 527.859375 570.3125 C 527.664062 568.996094 527.5 567.671875 527.371094 566.347656 C 527.238281 565.023438 527.140625 563.695312 527.074219 562.363281 C 527.011719 561.03125 526.976562 559.699219 526.976562 558.367188 C 526.976562 557.035156 527.011719 555.707031 527.074219 554.375 C 527.140625 553.042969 527.238281 551.714844 527.371094 550.390625 C 527.5 549.066406 527.664062 547.742188 527.859375 546.425781 C 528.054688 545.109375 528.28125 543.796875 528.542969 542.488281 C 528.800781 541.183594 529.09375 539.882812 529.417969 538.589844 C 529.742188 537.296875 530.09375 536.015625 530.480469 534.742188 C 530.867188 533.464844 531.285156 532.199219 531.734375 530.945312 C 532.183594 529.691406 532.664062 528.449219 533.171875 527.21875 C 533.683594 525.988281 534.222656 524.769531 534.792969 523.566406 C 535.363281 522.363281 535.960938 521.171875 536.589844 520 C 537.214844 518.824219 537.875 517.664062 538.558594 516.523438 C 539.242188 515.378906 539.957031 514.253906 540.695312 513.144531 C 541.433594 512.039062 542.203125 510.949219 542.996094 509.878906 C 543.789062 508.808594 544.609375 507.761719 545.453125 506.730469 C 546.300781 505.699219 547.167969 504.691406 548.0625 503.707031 C 548.957031 502.71875 549.875 501.753906 550.816406 500.8125 C 551.761719 499.871094 552.726562 498.953125 553.710938 498.058594 C 554.699219 497.164062 555.707031 496.292969 556.738281 495.445312 C 557.765625 494.601562 558.816406 493.78125 559.886719 492.988281 C 560.957031 492.195312 562.046875 491.429688 563.152344 490.6875 C 564.261719 489.949219 565.386719 489.234375 566.527344 488.550781 C 567.671875 487.867188 568.828125 487.210938 570.003906 486.582031 C 571.179688 485.953125 572.367188 485.355469 573.574219 484.785156 C 574.777344 484.214844 575.996094 483.675781 577.226562 483.167969 C 578.457031 482.65625 579.699219 482.175781 580.953125 481.730469 C 582.207031 481.28125 583.472656 480.863281 584.746094 480.476562 C 586.023438 480.089844 587.304688 479.734375 588.597656 479.410156 C 589.890625 479.085938 591.1875 478.792969 592.496094 478.535156 C 593.800781 478.273438 595.113281 478.046875 596.433594 477.851562 C 597.75 477.65625 599.070312 477.492188 600.398438 477.363281 C 601.722656 477.230469 603.050781 477.132812 604.382812 477.070312 C 605.710938 477.003906 607.042969 476.96875 608.375 476.96875 C 609.707031 476.96875 611.039062 477.003906 612.371094 477.070312 C 613.699219 477.132812 615.027344 477.230469 616.355469 477.363281 C 617.679688 477.492188 619 477.65625 620.320312 477.851562 C 621.636719 478.046875 622.949219 478.273438 624.253906 478.535156 C 625.5625 478.792969 626.863281 479.085938 628.152344 479.410156 C 629.445312 479.734375 630.730469 480.089844 632.003906 480.476562 C 633.277344 480.863281 634.542969 481.28125 635.796875 481.730469 C 637.050781 482.175781 638.292969 482.65625 639.527344 483.167969 C 640.757812 483.675781 641.972656 484.214844 643.179688 484.785156 C 644.382812 485.355469 645.570312 485.953125 646.746094 486.582031 C 647.921875 487.210938 649.082031 487.867188 650.222656 488.550781 C 651.367188 489.234375 652.492188 489.949219 653.597656 490.6875 C 654.707031 491.429688 655.792969 492.195312 656.863281 492.988281 C 657.933594 493.78125 658.984375 494.601562 660.015625 495.445312 C 661.042969 496.292969 662.050781 497.164062 663.039062 498.058594 C 664.027344 498.953125 664.992188 499.871094 665.933594 500.8125 C 666.875 501.753906 667.792969 502.71875 668.6875 503.707031 C 669.582031 504.691406 670.453125 505.699219 671.296875 506.730469 C 672.144531 507.761719 672.960938 508.808594 673.753906 509.878906 C 674.550781 510.949219 675.316406 512.039062 676.054688 513.144531 C 676.796875 514.253906 677.507812 515.378906 678.191406 516.523438 C 678.878906 517.664062 679.535156 518.824219 680.164062 520 C 680.789062 521.171875 681.390625 522.363281 681.957031 523.566406 C 682.527344 524.769531 683.066406 525.988281 683.578125 527.21875 C 684.085938 528.449219 684.566406 529.691406 685.015625 530.945312 C 685.464844 532.199219 685.882812 533.464844 686.269531 534.742188 C 686.65625 536.015625 687.011719 537.296875 687.335938 538.589844 C 687.660156 539.882812 687.949219 541.183594 688.210938 542.488281 C 688.46875 543.796875 688.699219 545.109375 688.894531 546.425781 C 689.089844 547.742188 689.25 549.066406 689.382812 550.390625 C 689.511719 551.714844 689.609375 553.042969 689.675781 554.375 C 689.742188 555.707031 689.773438 557.035156 689.773438 558.367188 C 689.773438 559.699219 689.738281 561.03125 689.671875 562.363281 C 689.605469 563.691406 689.507812 565.019531 689.375 566.34375 C 689.242188 567.671875 689.078125 568.992188 688.882812 570.308594 C 688.6875 571.625 688.457031 572.9375 688.195312 574.242188 C 687.9375 575.550781 687.644531 576.847656 687.320312 578.140625 C 686.996094 579.429688 686.636719 580.714844 686.25 581.988281 C 685.863281 583.261719 685.445312 584.527344 684.996094 585.78125 C 684.546875 587.035156 684.066406 588.277344 683.554688 589.507812 C 683.046875 590.738281 682.507812 591.953125 681.9375 593.15625 C 681.367188 594.359375 680.765625 595.550781 680.140625 596.722656 C 679.511719 597.898438 678.855469 599.054688 678.167969 600.199219 C 677.484375 601.339844 676.769531 602.464844 676.03125 603.574219 C 675.292969 604.679688 674.523438 605.769531 673.730469 606.835938 C 672.9375 607.90625 672.117188 608.957031 671.273438 609.984375 C 670.429688 611.015625 669.558594 612.023438 668.664062 613.011719 C 667.769531 613.996094 666.851562 614.960938 665.910156 615.902344 C 664.96875 616.84375 664.003906 617.761719 663.015625 618.65625 C 662.03125 619.550781 661.023438 620.421875 659.992188 621.265625 C 658.964844 622.109375 657.914062 622.929688 656.84375 623.722656 C 655.773438 624.515625 654.6875 625.285156 653.578125 626.023438 C 652.472656 626.765625 651.347656 627.476562 650.207031 628.164062 C 649.0625 628.847656 647.90625 629.503906 646.730469 630.132812 C 645.554688 630.761719 644.367188 631.359375 643.164062 631.929688 C 641.960938 632.5 640.742188 633.039062 639.511719 633.550781 C 638.28125 634.058594 637.039062 634.539062 635.789062 634.988281 C 634.535156 635.4375 633.269531 635.855469 631.996094 636.246094 C 630.722656 636.632812 629.4375 636.988281 628.148438 637.3125 C 626.855469 637.636719 625.554688 637.929688 624.25 638.191406 C 622.945312 638.449219 621.632812 638.679688 620.316406 638.875 C 618.996094 639.074219 617.675781 639.238281 616.351562 639.367188 C 615.027344 639.5 613.699219 639.597656 612.367188 639.664062 C 611.039062 639.730469 609.707031 639.765625 608.375 639.765625 Z M 608.375 501.054688 C 606.5 501.054688 604.625 501.144531 602.757812 501.328125 C 600.890625 501.511719 599.035156 501.789062 597.195312 502.152344 C 595.351562 502.519531 593.535156 502.976562 591.738281 503.519531 C 589.941406 504.066406 588.175781 504.699219 586.441406 505.414062 C 584.707031 506.132812 583.011719 506.9375 581.355469 507.820312 C 579.703125 508.707031 578.09375 509.667969 576.53125 510.710938 C 574.972656 511.753906 573.464844 512.871094 572.015625 514.0625 C 570.5625 515.253906 569.175781 516.511719 567.847656 517.839844 C 566.519531 519.167969 565.261719 520.558594 564.070312 522.007812 C 562.878906 523.460938 561.761719 524.964844 560.71875 526.527344 C 559.675781 528.085938 558.710938 529.695312 557.828125 531.351562 C 556.941406 533.007812 556.140625 534.699219 555.421875 536.433594 C 554.703125 538.167969 554.074219 539.933594 553.527344 541.730469 C 552.984375 543.527344 552.527344 545.347656 552.160156 547.1875 C 551.792969 549.027344 551.519531 550.882812 551.335938 552.75 C 551.152344 554.621094 551.058594 556.492188 551.058594 558.367188 C 551.058594 560.246094 551.152344 562.117188 551.335938 563.988281 C 551.519531 565.855469 551.792969 567.710938 552.160156 569.550781 C 552.527344 571.390625 552.984375 573.210938 553.527344 575.007812 C 554.074219 576.804688 554.703125 578.570312 555.421875 580.304688 C 556.140625 582.035156 556.941406 583.730469 557.828125 585.386719 C 558.710938 587.042969 559.675781 588.652344 560.71875 590.210938 C 561.761719 591.773438 562.878906 593.277344 564.070312 594.730469 C 565.261719 596.179688 566.519531 597.570312 567.847656 598.898438 C 569.175781 600.226562 570.5625 601.484375 572.015625 602.675781 C 573.464844 603.867188 574.972656 604.984375 576.53125 606.027344 C 578.09375 607.070312 579.703125 608.03125 581.355469 608.917969 C 583.011719 609.800781 584.707031 610.605469 586.441406 611.320312 C 588.175781 612.039062 589.941406 612.671875 591.738281 613.21875 C 593.535156 613.761719 595.351562 614.21875 597.195312 614.582031 C 599.035156 614.949219 600.890625 615.226562 602.757812 615.410156 C 604.625 615.59375 606.5 615.683594 608.375 615.683594 C 610.253906 615.683594 612.125 615.59375 613.992188 615.410156 C 615.863281 615.226562 617.714844 614.949219 619.558594 614.582031 C 621.398438 614.21875 623.21875 613.761719 625.011719 613.21875 C 626.808594 612.671875 628.574219 612.039062 630.308594 611.320312 C 632.042969 610.605469 633.738281 609.800781 635.394531 608.917969 C 637.050781 608.03125 638.65625 607.070312 640.21875 606.027344 C 641.78125 604.984375 643.285156 603.867188 644.738281 602.675781 C 646.1875 601.484375 647.578125 600.226562 648.902344 598.898438 C 650.230469 597.570312 651.492188 596.179688 652.679688 594.730469 C 653.871094 593.277344 654.988281 591.773438 656.03125 590.210938 C 657.074219 588.652344 658.039062 587.042969 658.921875 585.386719 C 659.808594 583.730469 660.609375 582.035156 661.328125 580.304688 C 662.046875 578.570312 662.679688 576.804688 663.222656 575.007812 C 663.769531 573.210938 664.222656 571.390625 664.589844 569.550781 C 664.957031 567.710938 665.230469 565.855469 665.414062 563.988281 C 665.601562 562.117188 665.691406 560.246094 665.691406 558.367188 C 665.6875 556.492188 665.589844 554.621094 665.402344 552.757812 C 665.214844 550.890625 664.933594 549.039062 664.5625 547.199219 C 664.195312 545.359375 663.734375 543.542969 663.1875 541.75 C 662.640625 539.953125 662.007812 538.191406 661.285156 536.460938 C 660.566406 534.726562 659.761719 533.035156 658.875 531.382812 C 657.992188 529.730469 657.027344 528.121094 655.984375 526.5625 C 654.941406 525.003906 653.824219 523.5 652.632812 522.050781 C 651.441406 520.601562 650.183594 519.214844 648.855469 517.886719 C 647.53125 516.5625 646.144531 515.300781 644.695312 514.113281 C 643.242188 512.921875 641.738281 511.804688 640.179688 510.761719 C 638.621094 509.71875 637.015625 508.753906 635.363281 507.867188 C 633.710938 506.980469 632.015625 506.179688 630.285156 505.457031 C 628.554688 504.738281 626.789062 504.105469 624.996094 503.558594 C 623.203125 503.007812 621.386719 502.550781 619.546875 502.179688 C 617.707031 501.8125 615.855469 501.53125 613.988281 501.34375 C 612.121094 501.15625 610.25 501.058594 608.375 501.054688 Z M 608.375 501.054688 " fill-opacity="1" fill-rule="nonzero"/></g><g clip-path="url(#f41064e411)"><path fill="#ffffff" d="M 677.734375 396.855469 L 482.425781 396.855469 C 481.632812 396.855469 480.851562 396.78125 480.074219 396.625 C 479.300781 396.472656 478.546875 396.242188 477.816406 395.941406 C 477.085938 395.636719 476.390625 395.265625 475.734375 394.828125 C 475.078125 394.386719 474.46875 393.890625 473.910156 393.328125 C 473.351562 392.769531 472.851562 392.164062 472.414062 391.503906 C 471.972656 390.847656 471.601562 390.152344 471.300781 389.421875 C 470.996094 388.691406 470.769531 387.941406 470.613281 387.164062 C 470.460938 386.390625 470.382812 385.605469 470.382812 384.816406 L 470.382812 225.390625 C 470.382812 224.597656 470.460938 223.816406 470.613281 223.042969 C 470.769531 222.265625 470.996094 221.511719 471.300781 220.78125 C 471.601562 220.050781 471.972656 219.359375 472.414062 218.699219 C 472.851562 218.042969 473.351562 217.433594 473.910156 216.875 C 474.46875 216.316406 475.078125 215.816406 475.734375 215.378906 C 476.390625 214.9375 477.085938 214.566406 477.816406 214.265625 C 478.546875 213.964844 479.300781 213.734375 480.074219 213.582031 C 480.851562 213.425781 481.632812 213.347656 482.425781 213.347656 L 543.914062 213.347656 C 546.757812 213.34375 549.589844 213.511719 552.414062 213.863281 C 555.234375 214.210938 558.023438 214.734375 560.78125 215.429688 C 563.535156 216.128906 566.238281 216.996094 568.886719 218.03125 C 571.535156 219.070312 574.105469 220.265625 576.605469 221.625 C 579.101562 222.984375 581.503906 224.492188 583.8125 226.152344 C 586.121094 227.8125 588.320312 229.613281 590.402344 231.546875 C 592.484375 233.480469 594.4375 235.539062 596.265625 237.71875 C 598.089844 239.898438 599.773438 242.183594 601.3125 244.574219 L 687.847656 378.3125 C 688.445312 379.21875 688.910156 380.1875 689.242188 381.222656 C 689.578125 382.253906 689.765625 383.3125 689.8125 384.398438 C 689.855469 385.480469 689.757812 386.550781 689.511719 387.609375 C 689.265625 388.667969 688.882812 389.671875 688.363281 390.625 C 687.84375 391.578125 687.203125 392.441406 686.449219 393.222656 C 685.695312 394 684.847656 394.664062 683.910156 395.214844 C 682.976562 395.761719 681.984375 396.175781 680.933594 396.457031 C 679.886719 396.734375 678.816406 396.867188 677.734375 396.855469 Z M 494.464844 372.773438 L 655.578125 372.773438 L 581.082031 257.660156 C 580.085938 256.113281 578.996094 254.632812 577.816406 253.21875 C 576.632812 251.808594 575.367188 250.472656 574.019531 249.21875 C 572.671875 247.964844 571.25 246.800781 569.753906 245.726562 C 568.257812 244.652344 566.703125 243.671875 565.085938 242.792969 C 563.46875 241.914062 561.800781 241.136719 560.085938 240.464844 C 558.371094 239.792969 556.621094 239.230469 554.835938 238.78125 C 553.050781 238.328125 551.246094 237.988281 549.417969 237.761719 C 547.589844 237.539062 545.757812 237.425781 543.914062 237.429688 L 494.464844 237.429688 Z M 494.464844 372.773438 " fill-opacity="1" fill-rule="nonzero"/></g><path fill="#ffffff" d="M 253.882812 325.332031 L 128.011719 325.332031 C 127.222656 325.332031 126.4375 325.253906 125.664062 325.101562 C 124.886719 324.945312 124.136719 324.71875 123.40625 324.414062 C 122.675781 324.113281 121.980469 323.742188 121.324219 323.300781 C 120.664062 322.863281 120.058594 322.363281 119.5 321.804688 C 118.9375 321.246094 118.441406 320.636719 118 319.980469 C 117.5625 319.324219 117.191406 318.628906 116.886719 317.898438 C 116.585938 317.167969 116.355469 316.414062 116.203125 315.640625 C 116.046875 314.863281 115.972656 314.082031 115.972656 313.289062 C 115.972656 312.5 116.046875 311.71875 116.203125 310.941406 C 116.355469 310.167969 116.585938 309.414062 116.886719 308.683594 C 117.191406 307.953125 117.5625 307.257812 118 306.601562 C 118.441406 305.945312 118.9375 305.335938 119.5 304.777344 C 120.058594 304.21875 120.664062 303.71875 121.324219 303.277344 C 121.980469 302.839844 122.675781 302.46875 123.40625 302.167969 C 124.136719 301.863281 124.886719 301.636719 125.664062 301.480469 C 126.4375 301.328125 127.222656 301.25 128.011719 301.25 L 253.882812 301.25 C 254.675781 301.25 255.457031 301.328125 256.230469 301.480469 C 257.007812 301.636719 257.761719 301.863281 258.492188 302.167969 C 259.222656 302.46875 259.914062 302.839844 260.574219 303.277344 C 261.230469 303.71875 261.839844 304.21875 262.398438 304.777344 C 262.957031 305.335938 263.457031 305.945312 263.894531 306.601562 C 264.335938 307.257812 264.707031 307.953125 265.007812 308.683594 C 265.308594 309.414062 265.539062 310.167969 265.691406 310.941406 C 265.847656 311.71875 265.925781 312.5 265.925781 313.289062 C 265.925781 314.082031 265.847656 314.863281 265.691406 315.640625 C 265.539062 316.414062 265.308594 317.167969 265.007812 317.898438 C 264.707031 318.628906 264.335938 319.324219 263.894531 319.980469 C 263.457031 320.636719 262.957031 321.246094 262.398438 321.804688 C 261.839844 322.363281 261.230469 322.863281 260.574219 323.300781 C 259.914062 323.742188 259.222656 324.113281 258.492188 324.414062 C 257.761719 324.71875 257.007812 324.945312 256.230469 325.101562 C 255.457031 325.253906 254.675781 325.332031 253.882812 325.332031 Z M 253.882812 325.332031 " fill-opacity="1" fill-rule="nonzero"/><path fill="#ffffff" d="M 197.210938 412.671875 L 47.65625 412.671875 C 46.867188 412.671875 46.085938 412.59375 45.308594 412.4375 C 44.535156 412.285156 43.78125 412.058594 43.050781 411.753906 C 42.320312 411.453125 41.625 411.082031 40.96875 410.640625 C 40.3125 410.203125 39.703125 409.703125 39.144531 409.144531 C 38.585938 408.585938 38.085938 407.976562 37.644531 407.320312 C 37.207031 406.660156 36.835938 405.96875 36.535156 405.238281 C 36.230469 404.507812 36.003906 403.753906 35.847656 402.980469 C 35.695312 402.203125 35.617188 401.421875 35.617188 400.628906 C 35.617188 399.839844 35.695312 399.054688 35.847656 398.28125 C 36.003906 397.503906 36.230469 396.753906 36.535156 396.023438 C 36.835938 395.292969 37.207031 394.597656 37.644531 393.941406 C 38.085938 393.28125 38.585938 392.675781 39.144531 392.113281 C 39.703125 391.554688 40.3125 391.058594 40.96875 390.617188 C 41.625 390.179688 42.320312 389.808594 43.050781 389.503906 C 43.78125 389.203125 44.535156 388.972656 45.308594 388.820312 C 46.085938 388.664062 46.867188 388.589844 47.65625 388.589844 L 197.210938 388.589844 C 198 388.589844 198.78125 388.664062 199.558594 388.820312 C 200.332031 388.972656 201.085938 389.203125 201.816406 389.503906 C 202.546875 389.808594 203.242188 390.179688 203.898438 390.617188 C 204.554688 391.058594 205.164062 391.554688 205.722656 392.113281 C 206.28125 392.675781 206.78125 393.28125 207.222656 393.941406 C 207.660156 394.597656 208.03125 395.292969 208.335938 396.023438 C 208.636719 396.753906 208.863281 397.503906 209.019531 398.28125 C 209.171875 399.054688 209.25 399.839844 209.25 400.628906 C 209.25 401.421875 209.171875 402.203125 209.019531 402.980469 C 208.863281 403.753906 208.636719 404.507812 208.335938 405.238281 C 208.03125 405.96875 207.660156 406.660156 207.222656 407.320312 C 206.78125 407.976562 206.28125 408.585938 205.722656 409.144531 C 205.164062 409.703125 204.554688 410.203125 203.898438 410.640625 C 203.242188 411.082031 202.546875 411.453125 201.816406 411.753906 C 201.085938 412.058594 200.332031 412.285156 199.558594 412.4375 C 198.78125 412.59375 198 412.671875 197.210938 412.671875 Z M 197.210938 412.671875 " fill-opacity="1" fill-rule="nonzero"/><path fill="#ffffff" d="M 183.402344 485.71875 L 93.574219 485.71875 C 92.785156 485.71875 92 485.644531 91.226562 485.488281 C 90.449219 485.335938 89.699219 485.105469 88.96875 484.804688 C 88.238281 484.5 87.542969 484.128906 86.886719 483.691406 C 86.226562 483.25 85.621094 482.753906 85.0625 482.195312 C 84.5 481.632812 84.003906 481.027344 83.5625 480.367188 C 83.125 479.710938 82.753906 479.019531 82.449219 478.289062 C 82.148438 477.558594 81.917969 476.804688 81.765625 476.027344 C 81.609375 475.253906 81.535156 474.46875 81.535156 473.679688 C 81.535156 472.890625 81.609375 472.105469 81.765625 471.332031 C 81.917969 470.554688 82.148438 469.800781 82.449219 469.070312 C 82.753906 468.339844 83.125 467.648438 83.5625 466.988281 C 84.003906 466.332031 84.5 465.722656 85.0625 465.164062 C 85.621094 464.605469 86.226562 464.105469 86.886719 463.667969 C 87.542969 463.226562 88.238281 462.855469 88.96875 462.554688 C 89.699219 462.253906 90.449219 462.023438 91.226562 461.871094 C 92 461.714844 92.785156 461.636719 93.574219 461.636719 L 183.402344 461.636719 C 184.191406 461.636719 184.976562 461.714844 185.75 461.871094 C 186.527344 462.023438 187.28125 462.253906 188.011719 462.554688 C 188.742188 462.855469 189.433594 463.226562 190.09375 463.667969 C 190.75 464.105469 191.359375 464.605469 191.917969 465.164062 C 192.476562 465.722656 192.976562 466.332031 193.414062 466.988281 C 193.851562 467.648438 194.222656 468.339844 194.527344 469.070312 C 194.828125 469.800781 195.058594 470.554688 195.210938 471.332031 C 195.367188 472.105469 195.445312 472.890625 195.445312 473.679688 C 195.445312 474.46875 195.367188 475.253906 195.210938 476.027344 C 195.058594 476.804688 194.828125 477.558594 194.527344 478.289062 C 194.222656 479.019531 193.851562 479.710938 193.414062 480.367188 C 192.976562 481.027344 192.476562 481.632812 191.917969 482.195312 C 191.359375 482.753906 190.75 483.25 190.09375 483.691406 C 189.433594 484.128906 188.742188 484.5 188.011719 484.804688 C 187.28125 485.105469 186.527344 485.335938 185.75 485.488281 C 184.976562 485.644531 184.191406 485.71875 183.402344 485.71875 Z M 183.402344 485.71875 " fill-opacity="1" fill-rule="nonzero"/></svg>