<?xml version="1.0" encoding="UTF-8" standalone="no"?>
<svg
   width="702.72406"
   zoomAndPan="magnify"
   viewBox="0 0 527.04305 671.917"
   height="895.88934"
   preserveAspectRatio="xMidYMid"
   version="1.0"
   id="svg2"
   xmlns="http://www.w3.org/2000/svg"
   xmlns:svg="http://www.w3.org/2000/svg">
  <defs
     id="defs1">
    <clipPath
       id="f9484ec0f0">
      <path
         d="M 141,84 H 669 V 756.75 H 141 Z m 0,0"
         clip-rule="nonzero"
         id="path1" />
    </clipPath>
  </defs>
  <g
     clip-path="url(#f9484ec0f0)"
     id="g2"
     transform="translate(-141.47374,-84.833008)">
    <path
       fill="#ffffff"
       d="m 470.78125,627.61719 43.46484,100.91015 48.6211,-78.34765 90.33203,18.5 -56.34766,-130.82813 c -35.25,15.04297 -32.85937,21.70703 -54.43359,54.69531 -16.03125,24.51172 -43.48047,37.5 -71.63672,35.07032 z m -65.78516,-399.91407 98.34375,42.14844 v 79.51953 c 0,58.3711 -41.79297,103.42578 -98.34375,113.28516 -56.55468,-9.85938 -98.34765,-54.91406 -98.34765,-113.28516 V 269.85156 Z M 391.94922,353.94141 369.75,331.74609 c -5.75391,-5.7539 -15.08594,-5.7539 -20.83984,0 -5.75391,5.75391 -5.75391,15.08594 0,20.83985 l 32.64843,32.64843 c 5.75391,5.75391 15.08594,5.75391 20.83985,0 19.67968,-19.67968 39.13672,-39.58203 58.72656,-59.35156 5.71094,-5.76562 5.69531,-15.0664 -0.0625,-20.79297 -5.76172,-5.72656 -15.08984,-5.71093 -20.80859,0.0625 z M 438.28906,96.085938 c 52.1836,39.058592 40.35156,34.753902 105.4336,38.371092 24.99609,1.39063 45.30078,18.42578 51.01171,42.80469 14.86719,63.46484 8.57032,52.55859 56.09766,97.16797 18.25391,17.13281 22.85547,43.23437 11.5625,65.57812 -29.40625,58.17188 -27.21875,45.76953 -19.48437,110.49219 2.97265,24.85937 -10.27735,47.8125 -33.29297,57.66797 -59.91797,25.66015 -50.27344,17.5664 -85.94922,72.12109 -13.70313,20.95313 -38.60938,30.01563 -62.57422,22.77344 -62.39453,-18.85547 -49.80078,-18.85547 -112.19531,0 -23.96875,7.24219 -48.8711,-1.82031 -62.57422,-22.77344 C 250.64453,525.73437 260.29297,533.83203 200.375,508.16797 177.35937,498.3125 164.10937,475.35937 167.07812,450.5 c 7.73829,-64.72266 9.92579,-52.32031 -19.48046,-110.49219 -11.29688,-22.34375 -6.69141,-48.44531 11.5625,-65.57812 47.52734,-44.60938 41.23046,-33.70313 56.10156,-97.16797 5.70703,-24.37891 26.01172,-41.41406 51.01172,-42.80469 65.07812,-3.61719 53.24609,0.6875 105.42968,-38.371092 20.03907,-15.003907 46.54297,-15.003907 66.58594,0 z m -33.29297,79.589842 c -93.61718,0 -169.5039,75.88672 -169.5039,169.50391 0,93.61328 75.88672,169.5039 169.5039,169.5039 93.61328,0 169.50391,-75.89062 169.50391,-169.5039 0,-93.61719 -75.89063,-169.50391 -169.50391,-169.50391 z M 293.95703,756.88672 355.375,624.50391 c -33.39844,10.09375 -68.70313,-2.75391 -87.80078,-31.95704 -11.92188,-18.23046 -20.85938,-39.36718 -41.25,-48.85546 l -69.53125,149.33984 90.83594,-15.86719 z m 0,0"
       fill-opacity="1"
       fill-rule="evenodd"
       id="path2" />
  </g>
</svg>
