<svg xmlns="http://www.w3.org/2000/svg" xmlns:xlink="http://www.w3.org/1999/xlink" width="1080" zoomAndPan="magnify" viewBox="0 0 810 809.999993" height="1080" preserveAspectRatio="xMidYMid meet" version="1.0"><defs><clipPath id="fd94e818a5"><path d="M 16 155.886719 L 794 155.886719 L 794 653.886719 L 16 653.886719 Z M 16 155.886719 " clip-rule="nonzero"/></clipPath></defs><g clip-path="url(#fd94e818a5)"><path fill="#ffffff" d="M 703.601562 654.109375 L 106.390625 654.109375 C 56.984375 654.109375 16.699219 610.175781 16.699219 556.035156 L 16.699219 253.964844 C 16.699219 199.820312 56.984375 155.886719 106.390625 155.886719 L 703.601562 155.886719 C 753.003906 155.886719 793.289062 199.820312 793.289062 253.964844 L 793.289062 556.214844 C 793.289062 610.175781 753.003906 654.109375 703.601562 654.109375 Z M 106.390625 170.472656 C 65.007812 170.472656 31.28125 207.84375 31.28125 253.964844 L 31.28125 556.214844 C 31.28125 602.15625 65.007812 639.707031 106.390625 639.707031 L 703.601562 639.707031 C 744.980469 639.707031 778.707031 602.335938 778.707031 556.214844 L 778.707031 253.964844 C 778.707031 207.84375 744.980469 170.472656 703.601562 170.472656 Z M 437.808594 557.492188 C 437.808594 562.230469 433.980469 566.058594 429.238281 566.058594 L 105.476562 566.058594 C 100.738281 566.058594 96.910156 562.230469 96.910156 557.492188 C 96.910156 552.753906 100.738281 548.925781 105.476562 548.925781 L 429.421875 548.925781 C 433.980469 548.925781 437.808594 552.753906 437.808594 557.492188 Z M 105.476562 526.320312 L 172.382812 526.320312 C 177.121094 526.320312 180.949219 522.492188 180.949219 517.75 C 180.949219 513.011719 177.121094 509.183594 172.382812 509.183594 L 105.476562 509.183594 C 100.738281 509.183594 96.910156 513.011719 96.910156 517.75 C 96.910156 522.492188 100.738281 526.320312 105.476562 526.320312 Z M 234 526.320312 L 300.902344 526.320312 C 305.640625 526.320312 309.46875 522.492188 309.46875 517.75 C 309.46875 513.011719 305.640625 509.183594 300.902344 509.183594 L 234 509.183594 C 229.257812 509.183594 225.429688 513.011719 225.429688 517.75 C 225.429688 522.492188 229.257812 526.320312 234 526.320312 Z M 362.519531 526.320312 L 429.421875 526.320312 C 434.164062 526.320312 437.992188 522.492188 437.992188 517.75 C 437.992188 513.011719 434.164062 509.183594 429.421875 509.183594 L 362.519531 509.183594 C 357.777344 509.183594 353.949219 513.011719 353.949219 517.75 C 353.949219 522.492188 357.777344 526.320312 362.519531 526.320312 Z M 219.050781 355.871094 L 118.785156 355.871094 C 106.753906 355.871094 96.910156 346.023438 96.910156 333.992188 L 96.910156 259.25 C 96.910156 247.21875 106.753906 237.375 118.785156 237.375 L 219.050781 237.375 C 231.082031 237.375 240.925781 247.21875 240.925781 259.25 L 240.925781 333.992188 C 240.925781 346.027344 231.082031 355.871094 219.050781 355.871094 Z M 663.675781 471.8125 C 647.269531 471.8125 632.140625 477.828125 620.652344 487.855469 C 633.234375 500.796875 640.890625 518.296875 640.890625 537.621094 C 640.890625 556.945312 633.050781 574.445312 620.652344 587.390625 C 632.140625 597.414062 647.269531 603.429688 663.675781 603.429688 C 699.953125 603.429688 729.488281 573.898438 729.488281 537.621094 C 729.488281 501.34375 699.953125 471.8125 663.675781 471.8125 Z M 569.609375 471.8125 C 533.332031 471.8125 503.800781 501.34375 503.800781 537.621094 C 503.800781 573.898438 533.332031 603.429688 569.609375 603.429688 C 605.886719 603.429688 635.421875 573.898438 635.421875 537.621094 C 635.421875 501.34375 605.886719 471.8125 569.609375 471.8125 Z M 569.609375 471.8125 " fill-opacity="1" fill-rule="nonzero"/></g></svg>